<?xml version="1.0" standalone="no"?>
<!DOCTYPE svg PUBLIC "-//W3C//DTD SVG 20010904//EN"
 "http://www.w3.org/TR/2001/REC-SVG-20010904/DTD/svg10.dtd">
<svg version="1.0" xmlns="http://www.w3.org/2000/svg"
 width="100.000000pt" height="100.000000pt" viewBox="0 0 100.000000 100.000000"
 preserveAspectRatio="xMidYMid meet">
<metadata>
Created by potrace 1.14, written by Peter Selinger 2001-2017
</metadata>
<g transform="translate(0.000000,100.000000) scale(0.100000,-0.100000)"
fill="#000000" stroke="none">
<path d="M439 971 c-20 -20 -29 -39 -29 -61 0 -43 47 -90 90 -90 43 0 90 47
90 90 0 22 -9 41 -29 61 -40 39 -82 39 -122 0z"/>
<path d="M180 815 c-7 -8 -9 -23 -5 -37 14 -45 85 -178 95 -178 6 0 37 14 70
30 l60 30 1 -62 c2 -97 -1 -127 -16 -208 -29 -154 -30 -143 26 -243 60 -107
76 -127 100 -127 23 0 49 26 49 50 0 10 -22 56 -49 103 l-49 84 15 69 c9 38
19 73 23 77 4 5 17 -17 30 -48 l23 -56 -21 -22 -20 -22 23 -43 23 -44 46 42
c25 23 48 51 51 62 4 11 -7 62 -25 117 -26 84 -30 109 -28 184 l3 87 60 -30
c33 -16 63 -30 67 -30 14 0 99 181 96 203 -4 27 -55 37 -64 13 -5 -14 -39 -16
-264 -16 -220 0 -259 2 -264 15 -7 19 -40 19 -56 0z m180 -59 c0 -3 -14 -15
-31 -27 -31 -22 -32 -22 -45 -4 -22 30 -17 35 31 35 25 0 45 -2 45 -4z m370
-4 c0 -5 -6 -16 -13 -25 -11 -16 -15 -16 -47 8 l-34 25 47 0 c26 0 47 -4 47
-8z"/>
<path d="M0 780 c0 -18 7 -20 69 -20 64 0 69 1 64 20 -5 17 -14 20 -69 20 -57
0 -64 -2 -64 -20z"/>
<path d="M867 780 c-5 -19 0 -20 64 -20 62 0 69 2 69 20 0 18 -7 20 -64 20
-55 0 -64 -3 -69 -20z"/>
</g>
</svg>
