<?xml version="1.0" standalone="no"?>
<!DOCTYPE svg PUBLIC "-//W3C//DTD SVG 20010904//EN"
 "http://www.w3.org/TR/2001/REC-SVG-20010904/DTD/svg10.dtd">
<svg version="1.0" xmlns="http://www.w3.org/2000/svg"
 width="100.000000pt" height="100.000000pt" viewBox="0 0 100.000000 100.000000"
 preserveAspectRatio="xMidYMid meet">
<metadata>
Created by potrace 1.14, written by Peter Selinger 2001-2017
</metadata>
<g transform="translate(0.000000,100.000000) scale(0.100000,-0.100000)"
fill="#000000" stroke="none">
<path d="M455 991 c-58 -25 -80 -99 -47 -156 l21 -35 -78 0 c-70 0 -79 2 -99
25 -12 14 -33 25 -47 25 -15 0 -31 -9 -41 -25 -15 -23 -22 -25 -90 -25 -67 0
-74 -2 -74 -20 0 -18 7 -20 80 -20 l80 0 43 -87 c48 -101 59 -106 130 -69 l47
25 0 -82 c0 -45 -6 -116 -14 -157 -30 -157 -31 -143 26 -249 59 -108 87 -141
121 -141 37 0 70 37 64 74 -2 17 -7 38 -11 47 -5 12 10 34 53 79 34 35 61 71
61 81 0 10 -13 61 -30 112 -22 69 -30 114 -30 166 l0 71 51 -25 c29 -15 58
-23 69 -20 11 4 36 41 61 91 l41 84 79 0 c72 0 79 2 79 20 0 18 -7 20 -73 20
-68 0 -75 2 -85 24 -14 31 -55 39 -82 14 -11 -10 -20 -23 -20 -28 0 -6 -37
-10 -85 -10 l-84 0 21 35 c40 70 0 152 -78 161 -21 2 -48 0 -59 -5z m89 -52
c15 -12 26 -30 26 -45 0 -30 -41 -74 -70 -74 -28 0 -70 43 -70 71 0 30 38 69
65 69 12 0 34 -9 49 -21z m263 -135 c-3 -3 -12 -4 -19 -1 -8 3 -5 6 6 6 11 1
17 -2 13 -5z m-546 -79 c7 -19 18 -36 25 -39 7 -3 35 13 62 35 l50 39 103 0
102 0 52 -39 c57 -43 64 -42 94 17 6 12 20 22 30 22 16 0 14 -8 -16 -70 l-34
-70 -68 35 c-38 19 -71 31 -75 28 -3 -4 -6 -51 -6 -106 0 -84 5 -115 32 -199
l31 -99 -49 -50 c-26 -27 -52 -49 -56 -49 -4 0 -12 9 -18 20 -9 17 -5 27 24
61 l34 41 -28 60 c-34 71 -46 86 -59 73 -15 -15 -50 -165 -44 -184 4 -9 26
-50 50 -92 23 -42 43 -83 43 -91 0 -27 -33 -32 -52 -8 -35 43 -107 188 -104
207 3 11 7 37 10 57 3 19 11 57 17 83 8 39 13 169 10 256 -1 25 -25 21 -88
-13 -30 -16 -56 -30 -57 -30 -4 0 -66 128 -66 135 0 3 9 5 19 5 13 0 24 -11
32 -35z m69 31 c0 -9 -30 -14 -35 -6 -4 6 3 10 14 10 12 0 21 -2 21 -4z m380
0 c0 -11 -19 -15 -25 -6 -3 5 1 10 9 10 9 0 16 -2 16 -4z m-180 -446 c0 -4
-11 -17 -24 -29 l-23 -22 10 46 c10 42 12 45 24 29 7 -10 13 -21 13 -24z"/>
</g>
</svg>
